<svg width="271" height="182" viewBox="0 0 271 182" fill="none" xmlns="http://www.w3.org/2000/svg">
<path d="M37.6836 55.7748C40.7619 56.4697 43.1947 58.0084 44.982 60.3909C46.819 62.7238 47.7375 65.4042 47.7375 68.432C47.7375 72.8993 46.1984 76.3987 43.1202 78.9301C40.042 81.4616 35.7225 82.7273 30.1618 82.7273H4.17065V30.2368H29.3426C34.7047 30.2368 38.9 31.4281 41.9286 33.8107C45.0068 36.1932 46.546 39.5437 46.546 43.862C46.546 46.9395 45.7267 49.5206 44.0883 51.6053C42.4996 53.6404 40.3647 55.0302 37.6836 55.7748ZM18.7674 51.0841H26.1403C29.8143 51.0841 31.6513 49.5702 31.6513 46.5424C31.6513 43.4153 29.8143 41.8518 26.1403 41.8518H18.7674V51.0841ZM27.2574 70.9635C30.9314 70.9635 32.7684 69.4248 32.7684 66.3473C32.7684 64.7589 32.2719 63.5428 31.2789 62.699C30.3356 61.8552 28.9703 61.4333 27.1829 61.4333H18.7674V70.9635H27.2574ZM79.3065 83.2485C74.3913 83.2485 69.8733 82.1068 65.7524 79.8236C61.6316 77.4907 58.3547 74.2891 55.9219 70.2189C53.5388 66.0991 52.3472 61.4581 52.3472 56.2959C52.3472 51.1338 53.5388 46.5176 55.9219 42.4474C58.3547 38.3276 61.6316 35.126 65.7524 32.8428C69.8733 30.5595 74.3913 29.4178 79.3065 29.4178C84.2714 29.4178 88.7895 30.5595 92.8607 32.8428C96.9815 35.126 100.234 38.3276 102.617 42.4474C105 46.5176 106.191 51.1338 106.191 56.2959C106.191 61.4581 105 66.0991 102.617 70.2189C100.234 74.2891 96.9815 77.4907 92.8607 79.8236C88.7398 82.1068 84.2218 83.2485 79.3065 83.2485ZM79.3065 69.6978C83.0302 69.6978 85.9595 68.4817 88.0944 66.0495C90.279 63.6173 91.3712 60.3661 91.3712 56.2959C91.3712 52.1265 90.279 48.8505 88.0944 46.4679C85.9595 44.0358 83.0302 42.8197 79.3065 42.8197C75.5332 42.8197 72.5791 44.0358 70.4442 46.4679C68.3093 48.8505 67.2419 52.1265 67.2419 56.2959C67.2419 60.4158 68.3093 63.6918 70.4442 66.1239C72.5791 68.5065 75.5332 69.6978 79.3065 69.6978Z" fill="#197BBD"/>
<path d="M137.925 83.2485C133.01 83.2485 128.492 82.1068 124.371 79.8236C120.25 77.4907 116.973 74.2891 114.54 70.2189C112.157 66.0991 110.966 61.4581 110.966 56.2959C110.966 51.1338 112.157 46.5176 114.54 42.4474C116.973 38.3276 120.25 35.126 124.371 32.8428C128.492 30.5595 133.01 29.4178 137.925 29.4178C142.89 29.4178 147.408 30.5595 151.479 32.8428C155.6 35.126 158.852 38.3276 161.235 42.4474C163.618 46.5176 164.81 51.1338 164.81 56.2959C164.81 61.4581 163.618 66.0991 161.235 70.2189C158.852 74.2891 155.6 77.4907 151.479 79.8236C147.358 82.1068 142.84 83.2485 137.925 83.2485ZM137.925 69.6978C141.649 69.6978 144.578 68.4817 146.713 66.0495C148.897 63.6173 149.99 60.3661 149.99 56.2959C149.99 52.1265 148.897 48.8505 146.713 46.4679C144.578 44.0358 141.649 42.8197 137.925 42.8197C134.152 42.8197 131.198 44.0358 129.063 46.4679C126.928 48.8505 125.86 52.1265 125.86 56.2959C125.86 60.4158 126.928 63.6918 129.063 66.1239C131.198 68.5065 134.152 69.6978 137.925 69.6978ZM202.427 82.7273L185.968 59.7208V82.7273H171.372V30.2368H185.968V52.871L202.278 30.2368H219.109L199.82 55.7003L220.077 82.7273H202.427Z" fill="black"/>
<path d="M65.4622 100.555V153.045H50.8654V124.083L40.9605 153.045H28.7468L18.7674 123.859V153.045H4.17065V100.555H21.8208L35.0026 134.655L47.8865 100.555H65.4622ZM106.986 144.483H88.3679L85.5379 153.045H70.1964L89.336 100.555H106.167L125.232 153.045H109.816L106.986 144.483ZM103.337 133.315L97.677 116.339L92.0915 133.315H103.337Z" fill="black"/>
<path d="M178.621 153.045H164.024L144.587 123.71V153.045H129.99V100.555H144.587L164.024 130.262V100.555H178.621V153.045ZM201.532 100.555V153.045H186.936V100.555H201.532ZM243.06 144.483H224.442L221.612 153.045H206.27L225.41 100.555H242.241L261.306 153.045H245.89L243.06 144.483ZM239.411 133.315L233.751 116.339L228.166 133.315H239.411Z" fill="#197BBD"/>
</svg>
